<mxfile host="app.diagrams.net" agent="Mozilla/5.0 (X11; Linux x86_64; rv:140.0) Gecko/20100101 Firefox/140.0" version="28.0.6">
  <diagram name="Page-1" id="n3aD12yE96eMD_H81KQo">
    <mxGraphModel dx="1494" dy="686" grid="1" gridSize="10" guides="1" tooltips="1" connect="1" arrows="1" fold="1" page="1" pageScale="1" pageWidth="850" pageHeight="1100" math="0" shadow="0">
      <root>
        <mxCell id="0" />
        <mxCell id="1" parent="0" />
        <mxCell id="ZA1UcydEme3zQa2n7PxT-20" value="" style="rounded=0;whiteSpace=wrap;html=1;" vertex="1" parent="1">
          <mxGeometry x="250" y="388.7" width="500" height="260" as="geometry" />
        </mxCell>
        <mxCell id="ZA1UcydEme3zQa2n7PxT-1" value="&lt;div&gt;Client n&lt;/div&gt;&lt;div&gt;(Includes local cache)&lt;/div&gt;" style="rounded=0;whiteSpace=wrap;html=1;" vertex="1" parent="1">
          <mxGeometry x="525" y="248.7" width="120" height="60" as="geometry" />
        </mxCell>
        <mxCell id="ZA1UcydEme3zQa2n7PxT-2" value="Client 1&lt;br&gt;(Includes local cache)" style="rounded=0;whiteSpace=wrap;html=1;" vertex="1" parent="1">
          <mxGeometry x="355" y="248.7" width="120" height="60" as="geometry" />
        </mxCell>
        <mxCell id="ZA1UcydEme3zQa2n7PxT-14" style="edgeStyle=orthogonalEdgeStyle;rounded=0;orthogonalLoop=1;jettySize=auto;html=1;exitX=0.5;exitY=1;exitDx=0;exitDy=0;entryX=0.5;entryY=0;entryDx=0;entryDy=0;" edge="1" parent="1" source="ZA1UcydEme3zQa2n7PxT-3" target="ZA1UcydEme3zQa2n7PxT-8">
          <mxGeometry relative="1" as="geometry" />
        </mxCell>
        <mxCell id="ZA1UcydEme3zQa2n7PxT-3" value="&lt;div&gt;Travel Mate&lt;/div&gt;&lt;div&gt;Web Service&lt;/div&gt;" style="rounded=0;whiteSpace=wrap;html=1;" vertex="1" parent="1">
          <mxGeometry x="300" y="448.7" width="120" height="60" as="geometry" />
        </mxCell>
        <mxCell id="ZA1UcydEme3zQa2n7PxT-4" value="&lt;div&gt;Google cloud&lt;/div&gt;" style="ellipse;shape=cloud;whiteSpace=wrap;html=1;" vertex="1" parent="1">
          <mxGeometry x="60" y="438.7" width="120" height="80" as="geometry" />
        </mxCell>
        <mxCell id="ZA1UcydEme3zQa2n7PxT-5" value="&lt;div&gt;&lt;br&gt;&lt;/div&gt;&lt;div&gt;Postgres&lt;/div&gt;&lt;div&gt;DB&lt;/div&gt;" style="strokeWidth=2;html=1;shape=mxgraph.flowchart.database;whiteSpace=wrap;" vertex="1" parent="1">
          <mxGeometry x="650" y="448.7" width="60" height="60" as="geometry" />
        </mxCell>
        <mxCell id="ZA1UcydEme3zQa2n7PxT-13" style="edgeStyle=orthogonalEdgeStyle;rounded=0;orthogonalLoop=1;jettySize=auto;html=1;exitX=0.5;exitY=1;exitDx=0;exitDy=0;entryX=0.5;entryY=0;entryDx=0;entryDy=0;" edge="1" parent="1" source="ZA1UcydEme3zQa2n7PxT-6" target="ZA1UcydEme3zQa2n7PxT-9">
          <mxGeometry relative="1" as="geometry" />
        </mxCell>
        <mxCell id="ZA1UcydEme3zQa2n7PxT-6" value="Premium manager" style="rounded=0;whiteSpace=wrap;html=1;" vertex="1" parent="1">
          <mxGeometry x="470" y="448.7" width="120" height="60" as="geometry" />
        </mxCell>
        <mxCell id="ZA1UcydEme3zQa2n7PxT-7" value="..." style="text;html=1;align=center;verticalAlign=middle;resizable=0;points=[];autosize=1;strokeColor=none;fillColor=none;" vertex="1" parent="1">
          <mxGeometry x="430" y="463.7" width="30" height="30" as="geometry" />
        </mxCell>
        <mxCell id="ZA1UcydEme3zQa2n7PxT-11" style="edgeStyle=orthogonalEdgeStyle;rounded=0;orthogonalLoop=1;jettySize=auto;html=1;exitX=0.5;exitY=0;exitDx=0;exitDy=0;entryX=0.5;entryY=1;entryDx=0;entryDy=0;" edge="1" parent="1" source="ZA1UcydEme3zQa2n7PxT-8" target="ZA1UcydEme3zQa2n7PxT-3">
          <mxGeometry relative="1" as="geometry" />
        </mxCell>
        <mxCell id="ZA1UcydEme3zQa2n7PxT-8" value="LLM Server" style="rounded=0;whiteSpace=wrap;html=1;" vertex="1" parent="1">
          <mxGeometry x="300" y="538.7" width="120" height="60" as="geometry" />
        </mxCell>
        <mxCell id="ZA1UcydEme3zQa2n7PxT-12" style="edgeStyle=orthogonalEdgeStyle;rounded=0;orthogonalLoop=1;jettySize=auto;html=1;exitX=0.5;exitY=0;exitDx=0;exitDy=0;" edge="1" parent="1" source="ZA1UcydEme3zQa2n7PxT-9" target="ZA1UcydEme3zQa2n7PxT-6">
          <mxGeometry relative="1" as="geometry" />
        </mxCell>
        <mxCell id="ZA1UcydEme3zQa2n7PxT-9" value="Voice Server" style="rounded=0;whiteSpace=wrap;html=1;" vertex="1" parent="1">
          <mxGeometry x="470" y="538.7" width="120" height="60" as="geometry" />
        </mxCell>
        <mxCell id="ZA1UcydEme3zQa2n7PxT-10" value="..." style="text;html=1;align=center;verticalAlign=middle;resizable=0;points=[];autosize=1;strokeColor=none;fillColor=none;" vertex="1" parent="1">
          <mxGeometry x="430" y="553.7" width="30" height="30" as="geometry" />
        </mxCell>
        <mxCell id="ZA1UcydEme3zQa2n7PxT-15" style="edgeStyle=orthogonalEdgeStyle;rounded=0;orthogonalLoop=1;jettySize=auto;html=1;exitX=1;exitY=0.5;exitDx=0;exitDy=0;entryX=0;entryY=0.5;entryDx=0;entryDy=0;entryPerimeter=0;" edge="1" parent="1" source="ZA1UcydEme3zQa2n7PxT-6" target="ZA1UcydEme3zQa2n7PxT-5">
          <mxGeometry relative="1" as="geometry" />
        </mxCell>
        <mxCell id="ZA1UcydEme3zQa2n7PxT-16" style="edgeStyle=orthogonalEdgeStyle;rounded=0;orthogonalLoop=1;jettySize=auto;html=1;entryX=0.5;entryY=0;entryDx=0;entryDy=0;entryPerimeter=0;" edge="1" parent="1" target="ZA1UcydEme3zQa2n7PxT-5">
          <mxGeometry relative="1" as="geometry">
            <mxPoint x="420" y="478.7" as="sourcePoint" />
            <mxPoint x="659.99" y="458.7" as="targetPoint" />
            <Array as="points">
              <mxPoint x="430" y="479" />
              <mxPoint x="430" y="429" />
              <mxPoint x="680" y="429" />
            </Array>
          </mxGeometry>
        </mxCell>
        <mxCell id="ZA1UcydEme3zQa2n7PxT-17" value="Open AI" style="ellipse;shape=cloud;whiteSpace=wrap;html=1;" vertex="1" parent="1">
          <mxGeometry x="60" y="528.7" width="120" height="80" as="geometry" />
        </mxCell>
        <mxCell id="ZA1UcydEme3zQa2n7PxT-22" value="" style="endArrow=classic;startArrow=classic;html=1;rounded=0;exitX=0.875;exitY=0.5;exitDx=0;exitDy=0;exitPerimeter=0;" edge="1" parent="1" source="ZA1UcydEme3zQa2n7PxT-4">
          <mxGeometry width="50" height="50" relative="1" as="geometry">
            <mxPoint x="260" y="498.7" as="sourcePoint" />
            <mxPoint x="250" y="478.7" as="targetPoint" />
          </mxGeometry>
        </mxCell>
        <mxCell id="ZA1UcydEme3zQa2n7PxT-24" value="&lt;div&gt;Kubernetes&lt;/div&gt;&lt;div&gt;Cluster&lt;/div&gt;" style="text;html=1;align=center;verticalAlign=middle;resizable=0;points=[];autosize=1;strokeColor=none;fillColor=none;" vertex="1" parent="1">
          <mxGeometry x="250" y="388.7" width="80" height="40" as="geometry" />
        </mxCell>
        <mxCell id="ZA1UcydEme3zQa2n7PxT-25" value="..." style="text;html=1;align=center;verticalAlign=middle;resizable=0;points=[];autosize=1;strokeColor=none;fillColor=none;" vertex="1" parent="1">
          <mxGeometry x="485" y="263.7" width="30" height="30" as="geometry" />
        </mxCell>
        <mxCell id="ZA1UcydEme3zQa2n7PxT-26" value="" style="endArrow=classic;startArrow=classic;html=1;rounded=0;entryX=0.5;entryY=1;entryDx=0;entryDy=0;" edge="1" parent="1" target="ZA1UcydEme3zQa2n7PxT-2">
          <mxGeometry width="50" height="50" relative="1" as="geometry">
            <mxPoint x="415" y="388.7" as="sourcePoint" />
            <mxPoint x="515" y="378.7" as="targetPoint" />
          </mxGeometry>
        </mxCell>
        <mxCell id="ZA1UcydEme3zQa2n7PxT-27" value="" style="endArrow=classic;startArrow=classic;html=1;rounded=0;entryX=0.5;entryY=1;entryDx=0;entryDy=0;" edge="1" parent="1">
          <mxGeometry width="50" height="50" relative="1" as="geometry">
            <mxPoint x="584.9" y="388.7" as="sourcePoint" />
            <mxPoint x="584.9" y="308.7" as="targetPoint" />
          </mxGeometry>
        </mxCell>
        <mxCell id="ZA1UcydEme3zQa2n7PxT-28" value="" style="endArrow=none;dashed=1;html=1;rounded=0;exitX=0.875;exitY=0.5;exitDx=0;exitDy=0;exitPerimeter=0;" edge="1" parent="1" source="ZA1UcydEme3zQa2n7PxT-17">
          <mxGeometry width="50" height="50" relative="1" as="geometry">
            <mxPoint x="180" y="553.7" as="sourcePoint" />
            <mxPoint x="250" y="568.7" as="targetPoint" />
          </mxGeometry>
        </mxCell>
        <mxCell id="ZA1UcydEme3zQa2n7PxT-29" value="&lt;font style=&quot;font-size: 6px;&quot;&gt;Backup Connection&lt;/font&gt;" style="text;html=1;align=center;verticalAlign=middle;resizable=0;points=[];autosize=1;strokeColor=none;fillColor=none;" vertex="1" parent="1">
          <mxGeometry x="170" y="545.7" width="80" height="30" as="geometry" />
        </mxCell>
        <mxCell id="ZA1UcydEme3zQa2n7PxT-30" value="" style="shape=mxgraph.networks2.icon;aspect=fixed;fillColor=#EDEDED;strokeColor=#000000;gradientColor=#5B6163;network2IconShadow=1;network2bgFillColor=none;network2Icon=mxgraph.networks2.satellite;network2IconXOffset=0.0149;network2IconYOffset=-0.00046;network2IconW=1.1553;network2IconH=0.9741;" vertex="1" parent="1">
          <mxGeometry x="475" y="80" width="57.765" height="48.705" as="geometry" />
        </mxCell>
        <mxCell id="ZA1UcydEme3zQa2n7PxT-32" value="" style="endArrow=classic;startArrow=classic;html=1;rounded=0;exitX=0.75;exitY=0;exitDx=0;exitDy=0;" edge="1" parent="1" source="ZA1UcydEme3zQa2n7PxT-2">
          <mxGeometry width="50" height="50" relative="1" as="geometry">
            <mxPoint x="480" y="218.7" as="sourcePoint" />
            <mxPoint x="490" y="158.7" as="targetPoint" />
          </mxGeometry>
        </mxCell>
        <mxCell id="ZA1UcydEme3zQa2n7PxT-33" value="" style="endArrow=classic;startArrow=classic;html=1;rounded=0;exitX=0.25;exitY=0;exitDx=0;exitDy=0;" edge="1" parent="1" source="ZA1UcydEme3zQa2n7PxT-1">
          <mxGeometry width="50" height="50" relative="1" as="geometry">
            <mxPoint x="650" y="271.7" as="sourcePoint" />
            <mxPoint x="510" y="158.7" as="targetPoint" />
          </mxGeometry>
        </mxCell>
        <mxCell id="ZA1UcydEme3zQa2n7PxT-34" value="GPS" style="text;html=1;align=center;verticalAlign=middle;resizable=0;points=[];autosize=1;strokeColor=none;fillColor=none;" vertex="1" parent="1">
          <mxGeometry x="475" y="128.7" width="50" height="30" as="geometry" />
        </mxCell>
        <mxCell id="ZA1UcydEme3zQa2n7PxT-35" value="Redis caching layer" style="rounded=0;whiteSpace=wrap;html=1;" vertex="1" parent="1">
          <mxGeometry x="385" y="332.7" width="230" height="30" as="geometry" />
        </mxCell>
        <mxCell id="ZA1UcydEme3zQa2n7PxT-37" value="" style="endArrow=classic;startArrow=classic;html=1;rounded=0;exitX=1;exitY=0;exitDx=0;exitDy=0;entryX=0;entryY=1;entryDx=0;entryDy=0;" edge="1" parent="1" source="ZA1UcydEme3zQa2n7PxT-8" target="ZA1UcydEme3zQa2n7PxT-6">
          <mxGeometry width="50" height="50" relative="1" as="geometry">
            <mxPoint x="440" y="500" as="sourcePoint" />
            <mxPoint x="490" y="450" as="targetPoint" />
          </mxGeometry>
        </mxCell>
        <mxCell id="ZA1UcydEme3zQa2n7PxT-38" value="" style="endArrow=classic;startArrow=classic;html=1;rounded=0;exitX=0;exitY=0;exitDx=0;exitDy=0;entryX=1;entryY=1;entryDx=0;entryDy=0;" edge="1" parent="1" source="ZA1UcydEme3zQa2n7PxT-9" target="ZA1UcydEme3zQa2n7PxT-3">
          <mxGeometry width="50" height="50" relative="1" as="geometry">
            <mxPoint x="460" y="540" as="sourcePoint" />
            <mxPoint x="510" y="510" as="targetPoint" />
          </mxGeometry>
        </mxCell>
        <mxCell id="ZA1UcydEme3zQa2n7PxT-41" value="" style="endArrow=classic;startArrow=classic;html=1;rounded=0;exitX=1;exitY=0.75;exitDx=0;exitDy=0;entryX=0;entryY=0.75;entryDx=0;entryDy=0;" edge="1" parent="1" source="ZA1UcydEme3zQa2n7PxT-3" target="ZA1UcydEme3zQa2n7PxT-6">
          <mxGeometry width="50" height="50" relative="1" as="geometry">
            <mxPoint x="450" y="550" as="sourcePoint" />
            <mxPoint x="500" y="520" as="targetPoint" />
          </mxGeometry>
        </mxCell>
      </root>
    </mxGraphModel>
  </diagram>
</mxfile>
